name Walk2.mot
datacolumns 19
datarows 25
range 3.51500000 3.63500000
endheader

                time	   L_ground_force_vx	   L_ground_force_vy	   L_ground_force_vz	   L_ground_force_px	   L_ground_force_py	   L_ground_force_pz	   R_ground_force_vx	   R_ground_force_vy	   R_ground_force_vz	   R_ground_force_px	   R_ground_force_py	   R_ground_force_pz	   L_ground_torque_x	   L_ground_torque_y	   L_ground_torque_z	   R_ground_torque_x	   R_ground_torque_y	   R_ground_torque_z	
          3.51500000	         26.84360702	        649.52858769	         35.18698760	         -0.35671925	          0.00000000	         -0.00050240	          0.01085880	          0.08749539	          0.01196557	          0.00005859	          0.00000000	          0.00005096	          0.00000000	          0.24386952	          0.00000000	          0.00000000	         -0.00016326	          0.00000000	
          3.52000000	         28.60831496	        654.64957519	         35.38796529	         -0.35521557	          0.00000000	         -0.00074433	          0.01207335	          0.13046954	          0.01680821	          0.00008029	          0.00000000	          0.00006910	          0.00000000	          0.23875669	          0.00000000	          0.00000000	          0.00019263	          0.00000000	
          3.52500000	         30.38590536	        659.87807868	         35.63325438	         -0.35364775	          0.00000000	         -0.00099981	          0.01247831	          0.18139200	          0.02228680	          0.00010422	          0.00000000	          0.00008887	          0.00000000	          0.23433554	          0.00000000	          0.00000000	          0.00072384	          0.00000000	
          3.53000000	         32.17481982	        665.16675475	         35.91612473	         -0.35201126	          0.00000000	         -0.00126938	          0.01157087	          0.23842873	          0.02808141	          0.00012869	          0.00000000	          0.00010872	          0.00000000	          0.23021012	          0.00000000	          0.00000000	          0.00146293	          0.00000000	
          3.53500000	         33.97287611	        670.47921640	         36.22719431	         -0.35030365	          0.00000000	         -0.00155528	          0.00872882	          0.29796569	          0.03365418	          0.00015097	          0.00000000	          0.00012628	          0.00000000	          0.22633046	          0.00000000	          0.00000000	          0.00243503	          0.00000000	
          3.54000000	         35.77719900	        675.79213496	         36.55632168	         -0.34852355	          0.00000000	         -0.00186018	          0.00322047	          0.35405887	          0.03819374	          0.00016710	          0.00000000	          0.00013809	          0.00000000	          0.22304471	          0.00000000	          0.00000000	          0.00365060	          0.00000000	
          3.54500000	         37.58437562	        681.09097899	         36.89419457	         -0.34666973	          0.00000000	         -0.00218533	         -0.00576630	          0.39786405	          0.04056228	          0.00017165	          0.00000000	          0.00013947	          0.00000000	          0.22112200	          0.00000000	          0.00000000	          0.00509591	          0.00000000	
          3.55000000	         39.39058716	        686.36475192	         37.23277760	         -0.34474251	          0.00000000	         -0.00253127	         -0.01906896	          0.41710514	          0.03925327	          0.00015757	          0.00000000	          0.00012442	          0.00000000	          0.22153537	          0.00000000	          0.00000000	          0.00672123	          0.00000000	
          3.55500000	         41.19197239	        691.60129887	         37.56457079	         -0.34274289	          0.00000000	         -0.00289804	         -0.03746111	          0.39566853	          0.03237098	          0.00011618	          0.00000000	          0.00008561	          0.00000000	          0.22537304	          0.00000000	          0.00000000	          0.00842680	          0.00000000	
          3.56000000	         42.98427788	        696.78568235	         37.88210711	         -0.34067261	          0.00000000	         -0.00328553	         -0.06152144	          0.31344367	          0.01764664	          0.00003731	          0.00000000	          0.00001453	          0.00000000	          0.23378718	          0.00000000	          0.00000000	          0.01004717	          0.00000000	
          3.56500000	         44.76210083	        701.90103505	         38.17763908	         -0.33853511	          0.00000000	         -0.00369318	         -0.09145333	          0.14656750	         -0.00749053	         -0.00009028	          0.00000000	         -0.00009810	          0.00000000	          0.24806246	          0.00000000	          0.00000000	          0.01133485	          0.00000000	
          3.57000000	         46.51952966	        706.93001474	         38.44417159	         -0.33633475	          0.00000000	         -0.00411832	         -0.12684973	         -0.13173171	         -0.04576513	         -0.00027811	          0.00000000	         -0.00026164	          0.00000000	          0.26948030	          0.00000000	          0.00000000	          0.01194492	          0.00000000	
          3.57500000	         48.25149728	        711.85676529	         38.67616304	         -0.33407577	          0.00000000	         -0.00455797	         -0.16640203	         -0.54945963	         -0.09980564	         -0.00053670	          0.00000000	         -0.00048439	          0.00000000	          0.29939471	          0.00000000	          0.00000000	          0.01142312	          0.00000000	
          3.58000000	         49.95456901	        716.66652343	         38.86946380	         -0.33176231	          0.00000000	         -0.00500977	         -0.20755705	         -1.13309227	         -0.17176647	         -0.00087376	          0.00000000	         -0.00077199	          0.00000000	          0.33914167	          0.00000000	          0.00000000	          0.00920063	          0.00000000	
          3.58500000	         51.62641388	        721.34508079	         39.02268471	         -0.32939902	          0.00000000	         -0.00547119	         -0.24613573	         -1.90345508	         -0.26279711	         -0.00129160	          0.00000000	         -0.00112528	          0.00000000	          0.38988280	          0.00000000	          0.00000000	          0.00460024	          0.00000000	
          3.59000000	         53.26466396	        725.87168496	         39.13823293	         -0.32699078	          0.00000000	         -0.00593900	         -0.27593910	         -2.86999375	         -0.37233817	         -0.00178388	          0.00000000	         -0.00153740	          0.00000000	          0.45249133	          0.00000000	          0.00000000	         -0.00314087	          0.00000000	
          3.59500000	         54.86540600	        730.21174481	         39.22292528	         -0.32454130	          0.00000000	         -0.00640971	         -0.28838282	         -4.02324372	         -0.49723453	         -0.00233153	          0.00000000	         -0.00199045	          0.00000000	          0.52752787	          0.00000000	          0.00000000	         -0.01482483	          0.00000000	
          3.60000000	         56.42233091	        734.31292255	         39.28688616	         -0.32205320	          0.00000000	         -0.00687944	         -0.27222162	         -5.32541940	         -0.63067239	         -0.00289798	          0.00000000	         -0.00245145	          0.00000000	          0.61505112	          0.00000000	          0.00000000	         -0.03121624	          0.00000000	
          3.60500000	         57.92600978	        738.10159125	         39.34148457	         -0.31952795	          0.00000000	         -0.00734439	         -0.21344759	         -6.69923199	         -0.76097308	         -0.00342390	          0.00000000	         -0.00286799	          0.00000000	          0.71466905	          0.00000000	          0.00000000	         -0.05292684	          0.00000000	
          3.61000000	         59.36368747	        741.48506820	         39.39627734	         -0.31696533	          0.00000000	         -0.00780164	         -0.09547249	         -8.01532404	         -0.87031198	         -0.00382173	          0.00000000	         -0.00316384	          0.00000000	          0.82524907	          0.00000000	          0.00000000	         -0.08025454	          0.00000000	
          3.61500000	         60.72116370	        744.35604767	         39.45515692	         -0.31436395	          0.00000000	         -0.00824819	          0.10026993	         -9.07909675	         -0.93347893	         -0.00397078	          0.00000000	         -0.00323498	          0.00000000	          0.94473446	          0.00000000	          0.00000000	         -0.11297116	          0.00000000	
          3.62000000	         61.98586741	        746.59802811	         39.51374561	         -0.31172183	          0.00000000	         -0.00868097	          0.39314060	         -9.61821477	         -0.91685603	         -0.00371349	          0.00000000	         -0.00294695	          0.00000000	          1.07029767	          0.00000000	          0.00000000	         -0.15005628	          0.00000000	
          3.62500000	         63.14964232	        748.09482837	         39.55776937	         -0.30903808	          0.00000000	         -0.00909642	          0.80135189	         -9.27270850	         -0.77786052	         -0.00285430	          0.00000000	         -0.00213437	          0.00000000	          1.19824634	          0.00000000	          0.00000000	         -0.18937992	          0.00000000	
          3.63000000	         64.21054146	        748.74043554	         39.56365264	         -0.30631520	          0.00000000	         -0.00948941	          1.33907911	         -7.59034771	         -0.46518171	         -0.00116249	          0.00000000	         -0.00060402	          0.00000000	          1.32389937	          0.00000000	          0.00000000	         -0.22734454	          0.00000000	
          3.63500000	         65.17307498	        748.45099762	         39.50238867	         -0.30356047	          0.00000000	         -0.00985410	          2.01245398	         -4.03080540	          0.07977327	          0.00161906	          0.00000000	          0.00185688	          0.00000000	          1.44209326	          0.00000000	          0.00000000	         -0.25850782	          0.00000000	
